<?xml version="1.0" encoding="UTF-8"?>
<svg width="800" height="600" xmlns="http://www.w3.org/2000/svg">
  <defs>
    <pattern id="fabricPattern" patternUnits="userSpaceOnUse" width="50" height="50">
      <rect width="50" height="50" fill="#f8f8f8"/>
      <path d="M0 25h50M25 0v50" stroke="#eee" stroke-width="1"/>
    </pattern>
    <filter id="glow">
      <feGaussianBlur stdDeviation="2" result="coloredBlur"/>
      <feMerge>
        <feMergeNode in="coloredBlur"/>
        <feMergeNode in="SourceGraphic"/>
      </feMerge>
    </filter>
  </defs>
  <rect width="100%" height="100%" fill="#f5f5f5"/>
  <g transform="translate(200,100)">
    <rect x="0" y="0" width="400" height="400" fill="url(#fabricPattern)"/>
    <path d="M200 100 C250 100,300 150,300 200 C300 250,250 300,200 300 C150 300,100 250,100 200 C100 150,150 100,200 100z" fill="none" stroke="#FFD700" stroke-width="3" filter="url(#glow)"/>
    <path d="M200 150 C230 150,260 180,260 210 C260 240,230 270,200 270 C170 270,140 240,140 210 C140 180,170 150,200 150z" fill="none" stroke="#FF0000" stroke-width="2"/>
    <path d="M180 180 Q200 160,220 180 T260 200 Q280 220,260 240 T220 260 Q200 280,180 260 T140 240 Q120 220,140 200 T180 180z" fill="none" stroke="#4169E1" stroke-width="2"/>
  </g>
  <text x="400" y="550" text-anchor="middle" font-size="24" fill="#333">潮绣</text>
</svg>