<?xml version="1.0" encoding="UTF-8"?>
<svg width="800" height="600" xmlns="http://www.w3.org/2000/svg">
  <defs>
    <pattern id="paperPattern" patternUnits="userSpaceOnUse" width="50" height="50">
      <rect width="50" height="50" fill="#fff6e6"/>
      <path d="M0 25h50M25 0v50" stroke="#f0e6d6" stroke-width="1"/>
    </pattern>
  </defs>
  <rect width="100%" height="100%" fill="#f5f5f5"/>
  <g transform="translate(200,100)">
    <rect x="0" y="0" width="400" height="400" fill="url(#paperPattern)"/>
    <!-- 音符和五线谱 -->
    <g transform="translate(50,100)">
      <path d="M0 0h300M0 20h300M0 40h300M0 60h300M0 80h300" stroke="#666" stroke-width="1"/>
      <!-- 音符1 -->
      <path d="M50 40 l20 -30 v60 l-5 2 q-15 5,-15 -12 q0 -15,15 -10z" fill="#333"/>
      <!-- 音符2 -->
      <path d="M150 20 l20 -30 v60 l-5 2 q-15 5,-15 -12 q0 -15,15 -10z" fill="#333"/>
      <!-- 音符3 -->
      <path d="M250 60 l20 -30 v60 l-5 2 q-15 5,-15 -12 q0 -15,15 -10z" fill="#333"/>
    </g>
    <!-- 传统纹样装饰 -->
    <path d="M50 250 q150 -50,300 0 q-150 50,-300 0z" fill="none" stroke="#8B4513" stroke-width="2"/>
    <path d="M50 300 q150 -50,300 0 q-150 50,-300 0z" fill="none" stroke="#8B4513" stroke-width="2"/>
  </g>
  <text x="400" y="550" text-anchor="middle" font-size="24" fill="#333">潮州歌册</text>
</svg>