<?xml version="1.0" encoding="UTF-8"?>
<svg width="800" height="600" xmlns="http://www.w3.org/2000/svg">
  <defs>
    <pattern id="woodPattern" patternUnits="userSpaceOnUse" width="100" height="100">
      <path d="M0 0h100v100H0z" fill="#8B4513"/>
      <path d="M0 20h100M0 40h100M0 60h100M0 80h100" stroke="#654321" stroke-width="2" opacity="0.3"/>
    </pattern>
  </defs>
  <rect width="100%" height="100%" fill="#f5f5f5"/>
  <g transform="translate(200,100)">
    <rect x="0" y="0" width="400" height="400" fill="url(#woodPattern)"/>
    <path d="M50 50 C100 25,300 25,350 50 C375 75,375 325,350 350 C300 375,100 375,50 350 C25 325,25 75,50 50z" fill="none" stroke="#4a3728" stroke-width="8"/>
    <path d="M100 100 C150 75,250 75,300 100 C325 125,325 275,300 300 C250 325,150 325,100 300 C75 275,75 125,100 100z" fill="none" stroke="#4a3728" stroke-width="6"/>
    <path d="M150 150 C175 135,225 135,250 150 C265 165,265 235,250 250 C225 265,175 265,150 250 C135 235,135 165,150 150z" fill="none" stroke="#4a3728" stroke-width="4"/>
  </g>
  <text x="400" y="550" text-anchor="middle" font-size="24" fill="#333">潮州木雕</text>
</svg>